<mxfile host="app.diagrams.net" modified="2023-10-31T18:33:39.695Z" agent="Mozilla/5.0 (Macintosh; Intel Mac OS X 10_15_7) AppleWebKit/605.1.15 (KHTML, like Gecko) Version/16.5.2 Safari/605.1.15" etag="GZ4QYcLsV9HSPgXCNURI" version="22.0.8" type="github">
  <diagram name="Page-1" id="J7Rwe3FlgArO9YMWmGPn">
    <mxGraphModel dx="1866" dy="1239" grid="1" gridSize="10" guides="1" tooltips="1" connect="1" arrows="1" fold="1" page="1" pageScale="1" pageWidth="850" pageHeight="1100" math="0" shadow="0">
      <root>
        <mxCell id="0" />
        <mxCell id="1" parent="0" />
        <mxCell id="r0di9if8hs9-B2SNoRB6-1" value="AWS Cloud" style="points=[[0,0],[0.25,0],[0.5,0],[0.75,0],[1,0],[1,0.25],[1,0.5],[1,0.75],[1,1],[0.75,1],[0.5,1],[0.25,1],[0,1],[0,0.75],[0,0.5],[0,0.25]];outlineConnect=0;gradientColor=none;html=1;whiteSpace=wrap;fontSize=12;fontStyle=0;container=1;pointerEvents=0;collapsible=0;recursiveResize=0;shape=mxgraph.aws4.group;grIcon=mxgraph.aws4.group_aws_cloud_alt;strokeColor=#232F3E;fillColor=none;verticalAlign=top;align=left;spacingLeft=30;fontColor=#232F3E;dashed=0;" parent="1" vertex="1">
          <mxGeometry x="20" y="120" width="1190" height="880" as="geometry" />
        </mxCell>
        <mxCell id="r0di9if8hs9-B2SNoRB6-2" value="VPC" style="points=[[0,0],[0.25,0],[0.5,0],[0.75,0],[1,0],[1,0.25],[1,0.5],[1,0.75],[1,1],[0.75,1],[0.5,1],[0.25,1],[0,1],[0,0.75],[0,0.5],[0,0.25]];outlineConnect=0;gradientColor=none;html=1;whiteSpace=wrap;fontSize=12;fontStyle=0;container=1;pointerEvents=0;collapsible=0;recursiveResize=0;shape=mxgraph.aws4.group;grIcon=mxgraph.aws4.group_vpc;strokeColor=#248814;fillColor=none;verticalAlign=top;align=left;spacingLeft=30;fontColor=#AAB7B8;dashed=0;" parent="1" vertex="1">
          <mxGeometry x="40" y="160" width="1140" height="810" as="geometry" />
        </mxCell>
        <mxCell id="r0di9if8hs9-B2SNoRB6-10" value="" style="outlineConnect=0;dashed=0;verticalLabelPosition=bottom;verticalAlign=top;align=center;html=1;shape=mxgraph.aws3.internet_gateway;fillColor=#F58534;gradientColor=none;" parent="r0di9if8hs9-B2SNoRB6-2" vertex="1">
          <mxGeometry x="330" y="-30" width="69" height="72" as="geometry" />
        </mxCell>
        <mxCell id="r0di9if8hs9-B2SNoRB6-11" value="Private subnet" style="points=[[0,0],[0.25,0],[0.5,0],[0.75,0],[1,0],[1,0.25],[1,0.5],[1,0.75],[1,1],[0.75,1],[0.5,1],[0.25,1],[0,1],[0,0.75],[0,0.5],[0,0.25]];outlineConnect=0;gradientColor=none;html=1;whiteSpace=wrap;fontSize=12;fontStyle=0;container=1;pointerEvents=0;collapsible=0;recursiveResize=0;shape=mxgraph.aws4.group;grIcon=mxgraph.aws4.group_security_group;grStroke=0;strokeColor=#147EBA;fillColor=#E6F2F8;verticalAlign=top;align=left;spacingLeft=30;fontColor=#147EBA;dashed=0;" parent="r0di9if8hs9-B2SNoRB6-2" vertex="1">
          <mxGeometry x="735" y="454.5" width="260" height="250" as="geometry" />
        </mxCell>
        <mxCell id="r0di9if8hs9-B2SNoRB6-15" value="&lt;font style=&quot;font-size: 17px;&quot;&gt;Subnet D&lt;br&gt;10.2.4.0/24&lt;/font&gt;" style="text;html=1;align=center;verticalAlign=middle;resizable=0;points=[];autosize=1;strokeColor=none;fillColor=none;" parent="r0di9if8hs9-B2SNoRB6-11" vertex="1">
          <mxGeometry x="70" y="66" width="110" height="50" as="geometry" />
        </mxCell>
        <mxCell id="r0di9if8hs9-B2SNoRB6-12" value="Public subnet" style="points=[[0,0],[0.25,0],[0.5,0],[0.75,0],[1,0],[1,0.25],[1,0.5],[1,0.75],[1,1],[0.75,1],[0.5,1],[0.25,1],[0,1],[0,0.75],[0,0.5],[0,0.25]];outlineConnect=0;gradientColor=none;html=1;whiteSpace=wrap;fontSize=12;fontStyle=0;container=1;pointerEvents=0;collapsible=0;recursiveResize=0;shape=mxgraph.aws4.group;grIcon=mxgraph.aws4.group_security_group;grStroke=0;strokeColor=#248814;fillColor=#E9F3E6;verticalAlign=top;align=left;spacingLeft=30;fontColor=#248814;dashed=0;" parent="r0di9if8hs9-B2SNoRB6-2" vertex="1">
          <mxGeometry x="140" y="140" width="260" height="250" as="geometry" />
        </mxCell>
        <mxCell id="r0di9if8hs9-B2SNoRB6-14" value="&lt;p style=&quot;line-height: 120%; font-size: 17px;&quot;&gt;&lt;font style=&quot;font-size: 17px;&quot;&gt;Subnet A&lt;br&gt;10.2.1.0/24&lt;/font&gt;&lt;/p&gt;" style="text;html=1;align=center;verticalAlign=middle;resizable=0;points=[];autosize=1;strokeColor=none;fillColor=none;" parent="r0di9if8hs9-B2SNoRB6-12" vertex="1">
          <mxGeometry x="65" y="47" width="110" height="90" as="geometry" />
        </mxCell>
        <mxCell id="r0di9if8hs9-B2SNoRB6-23" value="" style="outlineConnect=0;dashed=0;verticalLabelPosition=bottom;verticalAlign=top;align=center;html=1;shape=mxgraph.aws3.vpc_nat_gateway;fillColor=#F58534;gradientColor=none;" parent="r0di9if8hs9-B2SNoRB6-12" vertex="1">
          <mxGeometry x="200" y="70" width="40" height="42" as="geometry" />
        </mxCell>
        <mxCell id="IH3T0pA5ErTE_G9ovstJ-2" value="Public subnet" style="points=[[0,0],[0.25,0],[0.5,0],[0.75,0],[1,0],[1,0.25],[1,0.5],[1,0.75],[1,1],[0.75,1],[0.5,1],[0.25,1],[0,1],[0,0.75],[0,0.5],[0,0.25]];outlineConnect=0;gradientColor=none;html=1;whiteSpace=wrap;fontSize=12;fontStyle=0;container=1;pointerEvents=0;collapsible=0;recursiveResize=0;shape=mxgraph.aws4.group;grIcon=mxgraph.aws4.group_security_group;grStroke=0;strokeColor=#248814;fillColor=#E9F3E6;verticalAlign=top;align=left;spacingLeft=30;fontColor=#248814;dashed=0;" vertex="1" parent="r0di9if8hs9-B2SNoRB6-2">
          <mxGeometry x="740" y="140" width="250" height="250" as="geometry" />
        </mxCell>
        <mxCell id="IH3T0pA5ErTE_G9ovstJ-3" value="&lt;font style=&quot;font-size: 17px;&quot;&gt;Subnet B&lt;br&gt;10.2.2.0/24&lt;/font&gt;" style="text;html=1;align=center;verticalAlign=middle;resizable=0;points=[];autosize=1;strokeColor=none;fillColor=none;" vertex="1" parent="IH3T0pA5ErTE_G9ovstJ-2">
          <mxGeometry x="70" y="70" width="110" height="50" as="geometry" />
        </mxCell>
        <mxCell id="IH3T0pA5ErTE_G9ovstJ-15" value="" style="outlineConnect=0;dashed=0;verticalLabelPosition=bottom;verticalAlign=top;align=center;html=1;shape=mxgraph.aws3.vpc_nat_gateway;fillColor=#F58534;gradientColor=none;" vertex="1" parent="IH3T0pA5ErTE_G9ovstJ-2">
          <mxGeometry y="70" width="40" height="42" as="geometry" />
        </mxCell>
        <mxCell id="IH3T0pA5ErTE_G9ovstJ-1" value="Private subnet" style="points=[[0,0],[0.25,0],[0.5,0],[0.75,0],[1,0],[1,0.25],[1,0.5],[1,0.75],[1,1],[0.75,1],[0.5,1],[0.25,1],[0,1],[0,0.75],[0,0.5],[0,0.25]];outlineConnect=0;gradientColor=none;html=1;whiteSpace=wrap;fontSize=12;fontStyle=0;container=1;pointerEvents=0;collapsible=0;recursiveResize=0;shape=mxgraph.aws4.group;grIcon=mxgraph.aws4.group_security_group;grStroke=0;strokeColor=#147EBA;fillColor=#E6F2F8;verticalAlign=top;align=left;spacingLeft=30;fontColor=#147EBA;dashed=0;" vertex="1" parent="r0di9if8hs9-B2SNoRB6-2">
          <mxGeometry x="140" y="454.5" width="260" height="250" as="geometry" />
        </mxCell>
        <mxCell id="IH3T0pA5ErTE_G9ovstJ-4" value="&lt;font style=&quot;font-size: 17px;&quot;&gt;Subnet C&lt;br&gt;10.2.3.0/24&lt;/font&gt;" style="text;html=1;align=center;verticalAlign=middle;resizable=0;points=[];autosize=1;strokeColor=none;fillColor=none;" vertex="1" parent="IH3T0pA5ErTE_G9ovstJ-1">
          <mxGeometry x="78.5" y="62" width="110" height="50" as="geometry" />
        </mxCell>
        <mxCell id="IH3T0pA5ErTE_G9ovstJ-7" value="" style="outlineConnect=0;dashed=0;verticalLabelPosition=bottom;verticalAlign=top;align=center;html=1;shape=mxgraph.aws3.route_table;fillColor=#F58536;gradientColor=none;" vertex="1" parent="r0di9if8hs9-B2SNoRB6-2">
          <mxGeometry x="385" y="480" width="65" height="59" as="geometry" />
        </mxCell>
        <mxCell id="IH3T0pA5ErTE_G9ovstJ-16" style="edgeStyle=orthogonalEdgeStyle;rounded=0;orthogonalLoop=1;jettySize=auto;html=1;exitX=0;exitY=0;exitDx=0;exitDy=0;exitPerimeter=0;entryX=0.145;entryY=0.855;entryDx=0;entryDy=0;entryPerimeter=0;" edge="1" parent="r0di9if8hs9-B2SNoRB6-2" source="IH3T0pA5ErTE_G9ovstJ-8" target="IH3T0pA5ErTE_G9ovstJ-15">
          <mxGeometry relative="1" as="geometry" />
        </mxCell>
        <mxCell id="IH3T0pA5ErTE_G9ovstJ-8" value="" style="outlineConnect=0;dashed=0;verticalLabelPosition=bottom;verticalAlign=top;align=center;html=1;shape=mxgraph.aws3.route_table;fillColor=#F58536;gradientColor=none;" vertex="1" parent="r0di9if8hs9-B2SNoRB6-2">
          <mxGeometry x="720" y="470" width="65" height="59" as="geometry" />
        </mxCell>
        <mxCell id="IH3T0pA5ErTE_G9ovstJ-17" style="edgeStyle=orthogonalEdgeStyle;rounded=0;orthogonalLoop=1;jettySize=auto;html=1;exitX=1;exitY=0;exitDx=0;exitDy=0;exitPerimeter=0;entryX=0.855;entryY=0.855;entryDx=0;entryDy=0;entryPerimeter=0;" edge="1" parent="r0di9if8hs9-B2SNoRB6-2" source="IH3T0pA5ErTE_G9ovstJ-7" target="r0di9if8hs9-B2SNoRB6-23">
          <mxGeometry relative="1" as="geometry" />
        </mxCell>
        <mxCell id="IH3T0pA5ErTE_G9ovstJ-21" value="" style="outlineConnect=0;dashed=0;verticalLabelPosition=bottom;verticalAlign=top;align=center;html=1;shape=mxgraph.aws3.route_table;fillColor=#F58536;gradientColor=none;" vertex="1" parent="r0di9if8hs9-B2SNoRB6-2">
          <mxGeometry x="880" y="110" width="64" height="49" as="geometry" />
        </mxCell>
        <mxCell id="IH3T0pA5ErTE_G9ovstJ-24" style="edgeStyle=orthogonalEdgeStyle;rounded=0;orthogonalLoop=1;jettySize=auto;html=1;exitX=0.5;exitY=0;exitDx=0;exitDy=0;exitPerimeter=0;entryX=0.855;entryY=0.855;entryDx=0;entryDy=0;entryPerimeter=0;" edge="1" parent="r0di9if8hs9-B2SNoRB6-2" source="IH3T0pA5ErTE_G9ovstJ-21" target="r0di9if8hs9-B2SNoRB6-10">
          <mxGeometry relative="1" as="geometry">
            <Array as="points">
              <mxPoint x="912" y="40" />
              <mxPoint x="389" y="40" />
            </Array>
          </mxGeometry>
        </mxCell>
        <mxCell id="IH3T0pA5ErTE_G9ovstJ-25" value="" style="endArrow=classic;startArrow=classic;html=1;rounded=0;exitX=0.5;exitY=0;exitDx=0;exitDy=0;entryX=0.5;entryY=1;entryDx=0;entryDy=0;" edge="1" parent="r0di9if8hs9-B2SNoRB6-2" source="IH3T0pA5ErTE_G9ovstJ-1" target="r0di9if8hs9-B2SNoRB6-12">
          <mxGeometry width="50" height="50" relative="1" as="geometry">
            <mxPoint x="610" y="400" as="sourcePoint" />
            <mxPoint x="660" y="350" as="targetPoint" />
          </mxGeometry>
        </mxCell>
        <mxCell id="IH3T0pA5ErTE_G9ovstJ-26" value="" style="endArrow=classic;startArrow=classic;html=1;rounded=0;exitX=0.5;exitY=0;exitDx=0;exitDy=0;entryX=0.5;entryY=1;entryDx=0;entryDy=0;" edge="1" parent="r0di9if8hs9-B2SNoRB6-2" source="r0di9if8hs9-B2SNoRB6-11" target="IH3T0pA5ErTE_G9ovstJ-2">
          <mxGeometry width="50" height="50" relative="1" as="geometry">
            <mxPoint x="280" y="464" as="sourcePoint" />
            <mxPoint x="275" y="400" as="targetPoint" />
          </mxGeometry>
        </mxCell>
        <mxCell id="r0di9if8hs9-B2SNoRB6-16" value="Quiz2-VPC&lt;br&gt;10.2.0.0/16" style="text;html=1;align=center;verticalAlign=middle;resizable=0;points=[];autosize=1;strokeColor=none;fillColor=none;" parent="1" vertex="1">
          <mxGeometry x="60" y="183" width="80" height="40" as="geometry" />
        </mxCell>
        <mxCell id="IH3T0pA5ErTE_G9ovstJ-23" style="edgeStyle=orthogonalEdgeStyle;rounded=0;orthogonalLoop=1;jettySize=auto;html=1;exitX=0.5;exitY=0;exitDx=0;exitDy=0;exitPerimeter=0;" edge="1" parent="1" source="IH3T0pA5ErTE_G9ovstJ-20" target="r0di9if8hs9-B2SNoRB6-10">
          <mxGeometry relative="1" as="geometry" />
        </mxCell>
        <mxCell id="IH3T0pA5ErTE_G9ovstJ-20" value="" style="outlineConnect=0;dashed=0;verticalLabelPosition=bottom;verticalAlign=top;align=center;html=1;shape=mxgraph.aws3.route_table;fillColor=#F58536;gradientColor=none;" vertex="1" parent="1">
          <mxGeometry x="382.5" y="280" width="64" height="49" as="geometry" />
        </mxCell>
        <mxCell id="IH3T0pA5ErTE_G9ovstJ-27" value="Availability Zone" style="fillColor=none;strokeColor=#147EBA;dashed=1;verticalAlign=top;fontStyle=0;fontColor=#147EBA;whiteSpace=wrap;html=1;" vertex="1" parent="1">
          <mxGeometry x="120" y="260" width="420" height="660" as="geometry" />
        </mxCell>
        <mxCell id="IH3T0pA5ErTE_G9ovstJ-28" value="Availability Zone" style="fillColor=none;strokeColor=#147EBA;dashed=1;verticalAlign=top;fontStyle=0;fontColor=#147EBA;whiteSpace=wrap;html=1;" vertex="1" parent="1">
          <mxGeometry x="680" y="260" width="410" height="660" as="geometry" />
        </mxCell>
      </root>
    </mxGraphModel>
  </diagram>
</mxfile>
